<?xml version="1.0" standalone="no"?>
<!DOCTYPE svg PUBLIC "-//W3C//DTD SVG 20010904//EN"
 "http://www.w3.org/TR/2001/REC-SVG-20010904/DTD/svg10.dtd">
<svg version="1.0" xmlns="http://www.w3.org/2000/svg"
 width="180.000000pt" height="180.000000pt" viewBox="0 0 180.000000 180.000000"
 preserveAspectRatio="xMidYMid meet">
<metadata>
Created by potrace 1.16, written by Peter Selinger 2001-2019
</metadata>
<g transform="translate(0.000000,180.000000) scale(0.100000,-0.100000)"
fill="#000000" stroke="none">
<path d="M0 900 l0 -900 900 0 900 0 0 900 0 900 -900 0 -900 0 0 -900z m422
203 l38 -37 0 -84 c0 -61 -5 -92 -17 -112 -15 -26 -15 -38 -5 -107 17 -109 18
-105 -30 -101 l-43 3 -11 60 c-6 33 -17 77 -24 97 -13 36 -12 39 23 91 29 45
34 60 28 83 -4 16 -13 29 -19 28 -37 -3 -42 -5 -42 -14 0 -5 9 -10 20 -10 31
0 24 -20 -7 -22 -16 -1 -37 -3 -48 -4 -11 -1 -26 -2 -32 -3 -18 -1 6 -51 24
-51 7 0 13 -4 13 -10 0 -5 -4 -10 -10 -10 -5 0 -11 -50 -12 -117 l-3 -118 -40
0 -40 0 -3 215 c-1 118 0 225 3 238 5 21 10 22 102 22 l97 0 38 -37z m306 -5
l-3 -43 -72 -3 -73 -3 0 -54 0 -54 58 -3 57 -3 0 -40 0 -40 -57 -3 -58 -3 0
-49 0 -49 73 -3 72 -3 3 -43 3 -43 -118 3 -118 3 -3 225 c-1 123 0 230 2 237
4 10 37 13 121 13 l116 0 -3 -42z m274 5 c36 -35 38 -40 38 -102 0 -45 -5 -70
-16 -82 -15 -16 -15 -20 0 -41 10 -14 16 -44 16 -83 0 -57 -2 -63 -38 -98
l-39 -38 -99 3 -99 3 -3 225 c-1 123 0 230 2 237 4 9 33 13 103 13 l97 0 38
-37z m316 -5 l-3 -43 -72 -3 -73 -3 0 -54 0 -54 58 -3 57 -3 0 -40 0 -40 -57
-3 -58 -3 0 -49 0 -49 73 -3 72 -3 3 -43 3 -43 -118 3 -118 3 -3 225 c-1 123
0 230 2 237 4 10 37 13 121 13 l116 0 -3 -42z m132 -153 l0 -195 74 0 c82 0
100 -11 94 -57 l-3 -28 -125 0 -125 0 -3 225 c-1 123 0 230 2 237 3 8 22 13
46 13 l40 0 0 -195z"/>
</g>
</svg>
